<?xml version="1.0" encoding="UTF-8" standalone="no"?><svg xmlns="http://www.w3.org/2000/svg" xmlns:xlink="http://www.w3.org/1999/xlink" contentScriptType="application/ecmascript" contentStyleType="text/css" height="625px" preserveAspectRatio="none" style="width:708px;height:625px;" version="1.1" viewBox="0 0 708 625" width="708px" zoomAndPan="magnify"><defs/><g><!--cluster hexrec--><polygon fill="#FFFFFF" points="22,24,83,24,90,46.2969,686,46.2969,686,551,22,551,22,24" style="stroke: #000000; stroke-width: 1.5;"/><line style="stroke: #000000; stroke-width: 1.5;" x1="22" x2="90" y1="46.2969" y2="46.2969"/><text fill="#000000" font-family="sans-serif" font-size="14" font-weight="bold" lengthAdjust="spacingAndGlyphs" textLength="55" x="26" y="38.9951">hexrec</text><!--cluster blocks--><polygon fill="#FFFFFF" points="312.5,372,369.5,372,376.5,394.2969,645.5,394.2969,645.5,519,312.5,519,312.5,372" style="stroke: #000000; stroke-width: 1.5;"/><line style="stroke: #000000; stroke-width: 1.5;" x1="312.5" x2="376.5" y1="394.2969" y2="394.2969"/><text fill="#000000" font-family="sans-serif" font-size="14" font-weight="bold" lengthAdjust="spacingAndGlyphs" textLength="51" x="316.5" y="386.9951">blocks</text><!--cluster records--><polygon fill="#FFFFFF" points="127,75,195,75,202,97.2969,654,97.2969,654,332,127,332,127,75" style="stroke: #000000; stroke-width: 1.5;"/><line style="stroke: #000000; stroke-width: 1.5;" x1="127" x2="202" y1="97.2969" y2="97.2969"/><text fill="#000000" font-family="sans-serif" font-size="14" font-weight="bold" lengthAdjust="spacingAndGlyphs" textLength="62" x="131" y="89.9951">records</text><!--entity click--><rect fill="#FFFFFF" height="46.2969" style="stroke: #000000; stroke-width: 1.5;" width="70" x="173" y="568"/><path d="M196.3333,569 L196.3333,573 L189.3333,580 L173,580 " fill="none" style="stroke: #000000; stroke-width: 1.5;"/><text fill="#000000" font-family="sans-serif" font-size="14" lengthAdjust="spacingAndGlyphs" textLength="30" x="188" y="600.9951">click</text><polygon fill="#FFFFFF" points="38,195.5,77,195.5,84,217.7969,91,217.7969,91,248.0938,38,248.0938,38,195.5" style="stroke: #000000; stroke-width: 1.5;"/><line style="stroke: #000000; stroke-width: 1.5;" x1="38" x2="84" y1="217.7969" y2="217.7969"/><text fill="#000000" font-family="sans-serif" font-size="14" font-weight="bold" lengthAdjust="spacingAndGlyphs" textLength="33" x="42" y="210.4951">utils</text><polygon fill="#FFFFFF" points="184,479.5,218,479.5,225,501.7969,232,501.7969,232,532.0938,184,532.0938,184,479.5" style="stroke: #000000; stroke-width: 1.5;"/><line style="stroke: #000000; stroke-width: 1.5;" x1="184" x2="225" y1="501.7969" y2="501.7969"/><text fill="#000000" font-family="sans-serif" font-size="14" font-weight="bold" lengthAdjust="spacingAndGlyphs" textLength="28" x="188" y="494.4951">xxd</text><!--class block--><rect fill="#FEFECE" height="71.5469" id="block" style="stroke: #A80036; stroke-width: 1.5;" width="95" x="526.5" y="423"/><ellipse cx="550.95" cy="441.9688" fill="#ADD1B2" rx="11" ry="11" style="stroke: #A80036; stroke-width: 1.0;"/><path d="M553.2938,437.6406 L553.4656,437.7188 C553.6844,437.4063 553.8875,437.3125 554.1844,437.3125 C554.4813,437.3125 554.7625,437.4531 554.9188,437.7188 C555.0125,437.875 555.0281,438 555.0281,438.4375 L555.0281,439.8594 C555.0281,440.2813 554.9969,440.4688 554.8875,440.625 C554.7156,440.8438 554.45,440.9844 554.1844,440.9844 C553.9656,440.9844 553.7313,440.875 553.5906,440.7344 C553.45,440.6094 553.4188,440.4844 553.3563,440.0781 C553.2625,439.6719 553.0906,439.4531 552.6063,439.1719 C552.1375,438.9219 551.5281,438.7656 550.95,438.7656 C549.2156,438.7656 547.9656,440.0781 547.9656,441.8594 L547.9656,442.9531 C547.9656,444.6563 549.2625,445.75 551.3094,445.75 C552.075,445.75 552.7625,445.625 553.1844,445.3594 C553.3719,445.2656 553.3719,445.2656 553.825,444.7813 C554.0125,444.5938 554.2156,444.5156 554.4344,444.5156 C554.9031,444.5156 555.2938,444.9063 555.2938,445.3594 C555.2938,445.75 554.9656,446.2031 554.3875,446.6094 C553.6375,447.1563 552.4813,447.4531 551.2625,447.4531 C548.3719,447.4531 546.2625,445.5625 546.2625,442.9844 L546.2625,441.8594 C546.2625,439.1406 548.2625,437.0625 550.8875,437.0625 C551.7625,437.0625 552.3563,437.2031 553.2938,437.6406 Z "/><text fill="#000000" font-family="sans-serif" font-size="12" font-style="italic" lengthAdjust="spacingAndGlyphs" textLength="46" x="565.05" y="439.1387">«tuple»</text><text fill="#000000" font-family="sans-serif" font-size="12" lengthAdjust="spacingAndGlyphs" textLength="33" x="571.55" y="453.1074">block</text><line style="stroke: #A80036; stroke-width: 1.5;" x1="527.5" x2="620.5" y1="460.9375" y2="460.9375"/><ellipse cx="537.5" cy="472.8398" fill="none" rx="3" ry="3" style="stroke: #038048; stroke-width: 1.0;"/><text fill="#000000" font-family="sans-serif" font-size="11" lengthAdjust="spacingAndGlyphs" textLength="69" x="546.5" y="475.1479">address: int</text><ellipse cx="537.5" cy="485.6445" fill="none" rx="3" ry="3" style="stroke: #038048; stroke-width: 1.0;"/><text fill="#000000" font-family="sans-serif" font-size="11" lengthAdjust="spacingAndGlyphs" textLength="64" x="546.5" y="487.9526">data: bytes</text><!--class SparseItems--><rect fill="#FEFECE" height="58.7422" id="SparseItems" style="stroke: #A80036; stroke-width: 1.5;" width="110" x="336.5" y="434.5"/><ellipse cx="351.5" cy="453.4688" fill="#ADD1B2" rx="11" ry="11" style="stroke: #A80036; stroke-width: 1.0;"/><path d="M353.8438,449.1406 L354.0156,449.2188 C354.2344,448.9063 354.4375,448.8125 354.7344,448.8125 C355.0313,448.8125 355.3125,448.9531 355.4688,449.2188 C355.5625,449.375 355.5781,449.5 355.5781,449.9375 L355.5781,451.3594 C355.5781,451.7813 355.5469,451.9688 355.4375,452.125 C355.2656,452.3438 355,452.4844 354.7344,452.4844 C354.5156,452.4844 354.2813,452.375 354.1406,452.2344 C354,452.1094 353.9688,451.9844 353.9063,451.5781 C353.8125,451.1719 353.6406,450.9531 353.1563,450.6719 C352.6875,450.4219 352.0781,450.2656 351.5,450.2656 C349.7656,450.2656 348.5156,451.5781 348.5156,453.3594 L348.5156,454.4531 C348.5156,456.1563 349.8125,457.25 351.8594,457.25 C352.625,457.25 353.3125,457.125 353.7344,456.8594 C353.9219,456.7656 353.9219,456.7656 354.375,456.2813 C354.5625,456.0938 354.7656,456.0156 354.9844,456.0156 C355.4531,456.0156 355.8438,456.4063 355.8438,456.8594 C355.8438,457.25 355.5156,457.7031 354.9375,458.1094 C354.1875,458.6563 353.0313,458.9531 351.8125,458.9531 C348.9219,458.9531 346.8125,457.0625 346.8125,454.4844 L346.8125,453.3594 C346.8125,450.6406 348.8125,448.5625 351.4375,448.5625 C352.3125,448.5625 352.9063,448.7031 353.8438,449.1406 Z "/><text fill="#000000" font-family="sans-serif" font-size="12" font-style="italic" lengthAdjust="spacingAndGlyphs" textLength="75" x="367" y="450.6387">«bytearray»</text><text fill="#000000" font-family="sans-serif" font-size="12" lengthAdjust="spacingAndGlyphs" textLength="78" x="365.5" y="464.6074">SparseItems</text><line style="stroke: #A80036; stroke-width: 1.5;" x1="337.5" x2="445.5" y1="472.4375" y2="472.4375"/><ellipse cx="347.5" cy="484.3398" fill="none" rx="3" ry="3" style="stroke: #038048; stroke-width: 1.0;"/><text fill="#000000" font-family="sans-serif" font-size="11" lengthAdjust="spacingAndGlyphs" textLength="73" x="356.5" y="486.6479">blocks: block</text><!--class Record--><rect fill="#FEFECE" height="104.0234" id="Record" style="stroke: #A80036; stroke-width: 1.5;" width="105" x="155.5" y="118"/><ellipse cx="183.55" cy="134" fill="#A9DCDF" rx="11" ry="11" style="stroke: #A80036; stroke-width: 1.0;"/><path d="M185.1281,135.8125 L181.0813,135.8125 L180.6906,136.7969 L181.0813,136.7969 C181.5344,136.7969 181.675,136.8281 181.8469,136.9531 C182.0656,137.125 182.1906,137.375 182.1906,137.6563 C182.1906,137.9375 182.05,138.2344 181.7844,138.375 C181.6594,138.4688 181.4406,138.5 181.0813,138.5 L178.8156,138.5 C178.0656,138.5 177.6906,138.2188 177.6906,137.6563 C177.6906,137.3594 177.8469,137.0781 178.0969,136.9219 C178.2531,136.8125 178.4094,136.7969 178.8313,136.7969 L181.4719,130.2813 L180.3938,130.2813 C179.9563,130.2813 179.7844,130.25 179.6125,130.1406 C179.3938,129.9688 179.2531,129.7188 179.2531,129.4375 C179.2531,129.1563 179.4094,128.875 179.6594,128.7031 C179.8156,128.6094 179.9406,128.5938 180.3938,128.5938 L184.0656,128.5938 L187.4563,136.7969 C187.925,136.7969 188.0813,136.8281 188.2531,136.9688 C188.4719,137.125 188.6125,137.375 188.6125,137.6563 C188.6125,137.9375 188.4563,138.2344 188.2063,138.375 C188.0656,138.4688 187.8469,138.5 187.4875,138.5 L185.1281,138.5 C184.7063,138.5 184.5031,138.4531 184.3625,138.3281 C184.1438,138.1719 184.0031,137.9219 184.0031,137.6563 C184.0031,137.3594 184.1594,137.0781 184.4094,136.9219 C184.5656,136.8125 184.675,136.7969 185.1281,136.7969 L185.5188,136.7969 Z M184.425,134.1094 L183.0969,130.8438 L181.7531,134.1094 Z "/><text fill="#000000" font-family="sans-serif" font-size="12" font-style="italic" lengthAdjust="spacingAndGlyphs" textLength="44" x="200.45" y="138.1543">Record</text><line style="stroke: #A80036; stroke-width: 1.5;" x1="156.5" x2="259.5" y1="150" y2="150"/><ellipse cx="166.5" cy="161.9023" fill="none" rx="3" ry="3" style="stroke: #038048; stroke-width: 1.0;"/><text fill="#000000" font-family="sans-serif" font-size="11" lengthAdjust="spacingAndGlyphs" textLength="69" x="175.5" y="164.2104">address: int</text><ellipse cx="166.5" cy="174.707" fill="none" rx="3" ry="3" style="stroke: #038048; stroke-width: 1.0;"/><text fill="#000000" font-family="sans-serif" font-size="11" lengthAdjust="spacingAndGlyphs" textLength="58" x="175.5" y="177.0151">tag: enum</text><ellipse cx="166.5" cy="187.5117" fill="none" rx="3" ry="3" style="stroke: #038048; stroke-width: 1.0;"/><text fill="#000000" font-family="sans-serif" font-size="11" lengthAdjust="spacingAndGlyphs" textLength="64" x="175.5" y="189.8198">data: bytes</text><ellipse cx="166.5" cy="200.3164" fill="none" rx="3" ry="3" style="stroke: #038048; stroke-width: 1.0;"/><text fill="#000000" font-family="sans-serif" font-size="11" lengthAdjust="spacingAndGlyphs" textLength="53" x="175.5" y="202.6245">count: int</text><ellipse cx="166.5" cy="213.1211" fill="none" rx="3" ry="3" style="stroke: #038048; stroke-width: 1.0;"/><text fill="#000000" font-family="sans-serif" font-size="11" lengthAdjust="spacingAndGlyphs" textLength="79" x="175.5" y="215.4292">checksum: int</text><!--class BinaryRecord--><rect fill="#FEFECE" height="32" id="BinaryRecord" style="stroke: #A80036; stroke-width: 1.5;" width="114" x="151" y="257"/><ellipse cx="166" cy="273" fill="#ADD1B2" rx="11" ry="11" style="stroke: #A80036; stroke-width: 1.0;"/><path d="M168.3438,268.6719 L168.5156,268.75 C168.7344,268.4375 168.9375,268.3438 169.2344,268.3438 C169.5313,268.3438 169.8125,268.4844 169.9688,268.75 C170.0625,268.9063 170.0781,269.0313 170.0781,269.4688 L170.0781,270.8906 C170.0781,271.3125 170.0469,271.5 169.9375,271.6563 C169.7656,271.875 169.5,272.0156 169.2344,272.0156 C169.0156,272.0156 168.7813,271.9063 168.6406,271.7656 C168.5,271.6406 168.4688,271.5156 168.4063,271.1094 C168.3125,270.7031 168.1406,270.4844 167.6563,270.2031 C167.1875,269.9531 166.5781,269.7969 166,269.7969 C164.2656,269.7969 163.0156,271.1094 163.0156,272.8906 L163.0156,273.9844 C163.0156,275.6875 164.3125,276.7813 166.3594,276.7813 C167.125,276.7813 167.8125,276.6563 168.2344,276.3906 C168.4219,276.2969 168.4219,276.2969 168.875,275.8125 C169.0625,275.625 169.2656,275.5469 169.4844,275.5469 C169.9531,275.5469 170.3438,275.9375 170.3438,276.3906 C170.3438,276.7813 170.0156,277.2344 169.4375,277.6406 C168.6875,278.1875 167.5313,278.4844 166.3125,278.4844 C163.4219,278.4844 161.3125,276.5938 161.3125,274.0156 L161.3125,272.8906 C161.3125,270.1719 163.3125,268.0938 165.9375,268.0938 C166.8125,268.0938 167.4063,268.2344 168.3438,268.6719 Z "/><text fill="#000000" font-family="sans-serif" font-size="12" lengthAdjust="spacingAndGlyphs" textLength="82" x="180" y="277.1543">BinaryRecord</text><!--class IntelRecord--><rect fill="#FEFECE" height="32" id="IntelRecord" style="stroke: #A80036; stroke-width: 1.5;" width="103" x="340" y="252"/><ellipse cx="355" cy="268" fill="#ADD1B2" rx="11" ry="11" style="stroke: #A80036; stroke-width: 1.0;"/><path d="M357.3438,263.6719 L357.5156,263.75 C357.7344,263.4375 357.9375,263.3438 358.2344,263.3438 C358.5313,263.3438 358.8125,263.4844 358.9688,263.75 C359.0625,263.9063 359.0781,264.0313 359.0781,264.4688 L359.0781,265.8906 C359.0781,266.3125 359.0469,266.5 358.9375,266.6563 C358.7656,266.875 358.5,267.0156 358.2344,267.0156 C358.0156,267.0156 357.7813,266.9063 357.6406,266.7656 C357.5,266.6406 357.4688,266.5156 357.4063,266.1094 C357.3125,265.7031 357.1406,265.4844 356.6563,265.2031 C356.1875,264.9531 355.5781,264.7969 355,264.7969 C353.2656,264.7969 352.0156,266.1094 352.0156,267.8906 L352.0156,268.9844 C352.0156,270.6875 353.3125,271.7813 355.3594,271.7813 C356.125,271.7813 356.8125,271.6563 357.2344,271.3906 C357.4219,271.2969 357.4219,271.2969 357.875,270.8125 C358.0625,270.625 358.2656,270.5469 358.4844,270.5469 C358.9531,270.5469 359.3438,270.9375 359.3438,271.3906 C359.3438,271.7813 359.0156,272.2344 358.4375,272.6406 C357.6875,273.1875 356.5313,273.4844 355.3125,273.4844 C352.4219,273.4844 350.3125,271.5938 350.3125,269.0156 L350.3125,267.8906 C350.3125,265.1719 352.3125,263.0938 354.9375,263.0938 C355.8125,263.0938 356.4063,263.2344 357.3438,263.6719 Z "/><text fill="#000000" font-family="sans-serif" font-size="12" lengthAdjust="spacingAndGlyphs" textLength="71" x="369" y="272.1543">IntelRecord</text><!--class MotorolaRecord--><rect fill="#FEFECE" height="32" id="MotorolaRecord" style="stroke: #A80036; stroke-width: 1.5;" width="131" x="326" y="185"/><ellipse cx="341" cy="201" fill="#ADD1B2" rx="11" ry="11" style="stroke: #A80036; stroke-width: 1.0;"/><path d="M343.3438,196.6719 L343.5156,196.75 C343.7344,196.4375 343.9375,196.3438 344.2344,196.3438 C344.5313,196.3438 344.8125,196.4844 344.9688,196.75 C345.0625,196.9063 345.0781,197.0313 345.0781,197.4688 L345.0781,198.8906 C345.0781,199.3125 345.0469,199.5 344.9375,199.6563 C344.7656,199.875 344.5,200.0156 344.2344,200.0156 C344.0156,200.0156 343.7813,199.9063 343.6406,199.7656 C343.5,199.6406 343.4688,199.5156 343.4063,199.1094 C343.3125,198.7031 343.1406,198.4844 342.6563,198.2031 C342.1875,197.9531 341.5781,197.7969 341,197.7969 C339.2656,197.7969 338.0156,199.1094 338.0156,200.8906 L338.0156,201.9844 C338.0156,203.6875 339.3125,204.7813 341.3594,204.7813 C342.125,204.7813 342.8125,204.6563 343.2344,204.3906 C343.4219,204.2969 343.4219,204.2969 343.875,203.8125 C344.0625,203.625 344.2656,203.5469 344.4844,203.5469 C344.9531,203.5469 345.3438,203.9375 345.3438,204.3906 C345.3438,204.7813 345.0156,205.2344 344.4375,205.6406 C343.6875,206.1875 342.5313,206.4844 341.3125,206.4844 C338.4219,206.4844 336.3125,204.5938 336.3125,202.0156 L336.3125,200.8906 C336.3125,198.1719 338.3125,196.0938 340.9375,196.0938 C341.8125,196.0938 342.4063,196.2344 343.3438,196.6719 Z "/><text fill="#000000" font-family="sans-serif" font-size="12" lengthAdjust="spacingAndGlyphs" textLength="99" x="355" y="205.1543">MotorolaRecord</text><!--class TektronixRecord--><rect fill="#FEFECE" height="32" id="TektronixRecord" style="stroke: #A80036; stroke-width: 1.5;" width="133" x="325" y="118"/><ellipse cx="340" cy="134" fill="#ADD1B2" rx="11" ry="11" style="stroke: #A80036; stroke-width: 1.0;"/><path d="M342.3438,129.6719 L342.5156,129.75 C342.7344,129.4375 342.9375,129.3438 343.2344,129.3438 C343.5313,129.3438 343.8125,129.4844 343.9688,129.75 C344.0625,129.9063 344.0781,130.0313 344.0781,130.4688 L344.0781,131.8906 C344.0781,132.3125 344.0469,132.5 343.9375,132.6563 C343.7656,132.875 343.5,133.0156 343.2344,133.0156 C343.0156,133.0156 342.7813,132.9063 342.6406,132.7656 C342.5,132.6406 342.4688,132.5156 342.4063,132.1094 C342.3125,131.7031 342.1406,131.4844 341.6563,131.2031 C341.1875,130.9531 340.5781,130.7969 340,130.7969 C338.2656,130.7969 337.0156,132.1094 337.0156,133.8906 L337.0156,134.9844 C337.0156,136.6875 338.3125,137.7813 340.3594,137.7813 C341.125,137.7813 341.8125,137.6563 342.2344,137.3906 C342.4219,137.2969 342.4219,137.2969 342.875,136.8125 C343.0625,136.625 343.2656,136.5469 343.4844,136.5469 C343.9531,136.5469 344.3438,136.9375 344.3438,137.3906 C344.3438,137.7813 344.0156,138.2344 343.4375,138.6406 C342.6875,139.1875 341.5313,139.4844 340.3125,139.4844 C337.4219,139.4844 335.3125,137.5938 335.3125,135.0156 L335.3125,133.8906 C335.3125,131.1719 337.3125,129.0938 339.9375,129.0938 C340.8125,129.0938 341.4063,129.2344 342.3438,129.6719 Z "/><text fill="#000000" font-family="sans-serif" font-size="12" lengthAdjust="spacingAndGlyphs" textLength="101" x="354" y="138.1543">TektronixRecord</text><!--class MotorolaTag--><rect fill="#FEFECE" height="32" id="MotorolaTag" style="stroke: #A80036; stroke-width: 1.5;" width="110" x="519" y="185"/><ellipse cx="534" cy="201" fill="#EB937F" rx="11" ry="11" style="stroke: #A80036; stroke-width: 1.0;"/><path d="M532.2969,201.875 L532.2969,204.2969 L536.6563,204.2969 L536.6563,203.4219 C536.6563,202.9375 536.6875,202.7969 536.7969,202.6406 C536.9688,202.3906 537.2344,202.2813 537.5,202.2813 C537.7813,202.2813 538.0625,202.4375 538.2344,202.6875 C538.3125,202.8438 538.3438,202.9844 538.3438,203.4219 L538.3438,206 L530.3438,206 C529.9531,206 529.7188,205.9531 529.5781,205.8281 C529.3594,205.6719 529.2188,205.4219 529.2188,205.1563 C529.2188,204.8594 529.375,204.5938 529.625,204.4219 C529.7813,204.3125 529.9375,204.2969 530.3438,204.2969 L530.5938,204.2969 L530.5938,197.7813 L530.3438,197.7813 C529.9219,197.7813 529.7344,197.75 529.5781,197.6406 C529.3594,197.4688 529.2188,197.2188 529.2188,196.9375 C529.2188,196.6563 529.375,196.3594 529.625,196.2031 C529.7813,196.1094 529.9063,196.0938 530.3438,196.0938 L537.9688,196.0938 L537.9688,198.6406 C537.9688,199.1094 537.9375,199.25 537.8281,199.4219 C537.6563,199.6406 537.3906,199.7813 537.125,199.7813 C536.8438,199.7813 536.5625,199.625 536.3906,199.375 C536.3125,199.2188 536.2813,199.0469 536.2813,198.6406 L536.2813,197.7813 L532.2969,197.7813 L532.2969,200.1875 L533.75,200.1875 L533.75,200.0625 C533.75,199.6094 533.7813,199.4531 533.8906,199.2813 C534.0625,199.0625 534.3281,198.9219 534.5781,198.9219 C535.0313,198.9219 535.3438,199.2344 535.4063,199.7031 C535.4219,199.8594 535.4219,199.9063 535.4219,200.0625 L535.4219,201.9844 C535.4219,202.4375 535.3906,202.5938 535.2656,202.75 C535.1094,202.9688 534.8438,203.1094 534.5938,203.1094 C534.2969,203.1094 534.0156,202.9531 533.8594,202.7031 C533.7813,202.5469 533.75,202.3906 533.75,201.9844 L533.75,201.875 Z "/><text fill="#000000" font-family="sans-serif" font-size="12" lengthAdjust="spacingAndGlyphs" textLength="78" x="548" y="205.1543">MotorolaTag</text><!--class IntelTag--><rect fill="#FEFECE" height="32" id="IntelTag" style="stroke: #A80036; stroke-width: 1.5;" width="82" x="533" y="252"/><ellipse cx="548" cy="268" fill="#EB937F" rx="11" ry="11" style="stroke: #A80036; stroke-width: 1.0;"/><path d="M546.2969,268.875 L546.2969,271.2969 L550.6563,271.2969 L550.6563,270.4219 C550.6563,269.9375 550.6875,269.7969 550.7969,269.6406 C550.9688,269.3906 551.2344,269.2813 551.5,269.2813 C551.7813,269.2813 552.0625,269.4375 552.2344,269.6875 C552.3125,269.8438 552.3438,269.9844 552.3438,270.4219 L552.3438,273 L544.3438,273 C543.9531,273 543.7188,272.9531 543.5781,272.8281 C543.3594,272.6719 543.2188,272.4219 543.2188,272.1563 C543.2188,271.8594 543.375,271.5938 543.625,271.4219 C543.7813,271.3125 543.9375,271.2969 544.3438,271.2969 L544.5938,271.2969 L544.5938,264.7813 L544.3438,264.7813 C543.9219,264.7813 543.7344,264.75 543.5781,264.6406 C543.3594,264.4688 543.2188,264.2188 543.2188,263.9375 C543.2188,263.6563 543.375,263.3594 543.625,263.2031 C543.7813,263.1094 543.9063,263.0938 544.3438,263.0938 L551.9688,263.0938 L551.9688,265.6406 C551.9688,266.1094 551.9375,266.25 551.8281,266.4219 C551.6563,266.6406 551.3906,266.7813 551.125,266.7813 C550.8438,266.7813 550.5625,266.625 550.3906,266.375 C550.3125,266.2188 550.2813,266.0469 550.2813,265.6406 L550.2813,264.7813 L546.2969,264.7813 L546.2969,267.1875 L547.75,267.1875 L547.75,267.0625 C547.75,266.6094 547.7813,266.4531 547.8906,266.2813 C548.0625,266.0625 548.3281,265.9219 548.5781,265.9219 C549.0313,265.9219 549.3438,266.2344 549.4063,266.7031 C549.4219,266.8594 549.4219,266.9063 549.4219,267.0625 L549.4219,268.9844 C549.4219,269.4375 549.3906,269.5938 549.2656,269.75 C549.1094,269.9688 548.8438,270.1094 548.5938,270.1094 C548.2969,270.1094 548.0156,269.9531 547.8594,269.7031 C547.7813,269.5469 547.75,269.3906 547.75,268.9844 L547.75,268.875 Z "/><text fill="#000000" font-family="sans-serif" font-size="12" lengthAdjust="spacingAndGlyphs" textLength="50" x="562" y="272.1543">IntelTag</text><!--class TektronixTag--><rect fill="#FEFECE" height="32" id="TektronixTag" style="stroke: #A80036; stroke-width: 1.5;" width="112" x="518" y="118"/><ellipse cx="533" cy="134" fill="#EB937F" rx="11" ry="11" style="stroke: #A80036; stroke-width: 1.0;"/><path d="M531.2969,134.875 L531.2969,137.2969 L535.6563,137.2969 L535.6563,136.4219 C535.6563,135.9375 535.6875,135.7969 535.7969,135.6406 C535.9688,135.3906 536.2344,135.2813 536.5,135.2813 C536.7813,135.2813 537.0625,135.4375 537.2344,135.6875 C537.3125,135.8438 537.3438,135.9844 537.3438,136.4219 L537.3438,139 L529.3438,139 C528.9531,139 528.7188,138.9531 528.5781,138.8281 C528.3594,138.6719 528.2188,138.4219 528.2188,138.1563 C528.2188,137.8594 528.375,137.5938 528.625,137.4219 C528.7813,137.3125 528.9375,137.2969 529.3438,137.2969 L529.5938,137.2969 L529.5938,130.7813 L529.3438,130.7813 C528.9219,130.7813 528.7344,130.75 528.5781,130.6406 C528.3594,130.4688 528.2188,130.2188 528.2188,129.9375 C528.2188,129.6563 528.375,129.3594 528.625,129.2031 C528.7813,129.1094 528.9063,129.0938 529.3438,129.0938 L536.9688,129.0938 L536.9688,131.6406 C536.9688,132.1094 536.9375,132.25 536.8281,132.4219 C536.6563,132.6406 536.3906,132.7813 536.125,132.7813 C535.8438,132.7813 535.5625,132.625 535.3906,132.375 C535.3125,132.2188 535.2813,132.0469 535.2813,131.6406 L535.2813,130.7813 L531.2969,130.7813 L531.2969,133.1875 L532.75,133.1875 L532.75,133.0625 C532.75,132.6094 532.7813,132.4531 532.8906,132.2813 C533.0625,132.0625 533.3281,131.9219 533.5781,131.9219 C534.0313,131.9219 534.3438,132.2344 534.4063,132.7031 C534.4219,132.8594 534.4219,132.9063 534.4219,133.0625 L534.4219,134.9844 C534.4219,135.4375 534.3906,135.5938 534.2656,135.75 C534.1094,135.9688 533.8438,136.1094 533.5938,136.1094 C533.2969,136.1094 533.0156,135.9531 532.8594,135.7031 C532.7813,135.5469 532.75,135.3906 532.75,134.9844 L532.75,134.875 Z "/><text fill="#000000" font-family="sans-serif" font-size="12" lengthAdjust="spacingAndGlyphs" textLength="80" x="547" y="138.1543">TektronixTag</text><polygon fill="#FFFFFF" points="46,448.5,69,448.5,76,470.7969,83,470.7969,83,501.0938,46,501.0938,46,448.5" style="stroke: #000000; stroke-width: 1.5;"/><line style="stroke: #000000; stroke-width: 1.5;" x1="46" x2="76" y1="470.7969" y2="470.7969"/><text fill="#000000" font-family="sans-serif" font-size="14" font-weight="bold" lengthAdjust="spacingAndGlyphs" textLength="17" x="50" y="463.4951">cli</text><!--link SparseItems to block--><path d="M459.761,462.137 C481.876,461.524 505.964,460.857 526.216,460.296 " fill="none" id="SparseItems-block" style="stroke: #A80036; stroke-width: 1.0;"/><polygon fill="#FFFFFF" points="446.656,462.5,452.7645,466.3323,458.6514,462.1677,452.5429,458.3354,446.656,462.5" style="stroke: #A80036; stroke-width: 1.0;"/><text fill="#000000" font-family="sans-serif" font-size="13" lengthAdjust="spacingAndGlyphs" textLength="7" x="511.3631" y="473.7546">*</text><!--link BinaryRecord to Record--><path d="M208,256.906 C208,252.037 208,247.167 208,242.298 " fill="none" id="BinaryRecord-Record" style="stroke: #A80036; stroke-width: 1.0;"/><polygon fill="none" points="201,242.28,208,222.28,215,242.28,201,242.28" style="stroke: #A80036; stroke-width: 1.0;"/><!--link Record to IntelRecord--><path d="M277.085,223.541 C283.493,227.666 290.019,231.557 296.5,235 C309.942,242.14 325.25,248.27 339.553,253.242 " fill="none" id="Record-IntelRecord" style="stroke: #A80036; stroke-width: 1.0;"/><polygon fill="none" points="273.08,229.282,260.51,212.224,280.974,217.72,273.08,229.282" style="stroke: #A80036; stroke-width: 1.0;"/><!--link Record to MotorolaRecord--><path d="M280.375,182.191 C295.389,184.755 311.146,187.446 325.895,189.966 " fill="none" id="Record-MotorolaRecord" style="stroke: #A80036; stroke-width: 1.0;"/><polygon fill="none" points="279.061,189.068,260.525,178.8,281.418,175.268,279.061,189.068" style="stroke: #A80036; stroke-width: 1.0;"/><!--link Record to TektronixRecord--><path d="M280.31,155.856 C295.006,152.941 310.416,149.884 324.898,147.012 " fill="none" id="Record-TektronixRecord" style="stroke: #A80036; stroke-width: 1.0;"/><polygon fill="none" points="281.505,162.755,260.525,159.78,278.781,149.023,281.505,162.755" style="stroke: #A80036; stroke-width: 1.0;"/><!--link MotorolaRecord to MotorolaTag--><path d="M457.155,201 C475.648,201 495.703,201 513.849,201 " fill="none" id="MotorolaRecord-MotorolaTag" style="stroke: #A80036; stroke-width: 1.0; stroke-dasharray: 7.0,7.0;"/><polygon fill="#A80036" points="518.913,201,509.913,197,513.913,201,509.913,205,518.913,201" style="stroke: #A80036; stroke-width: 1.0;"/><!--link IntelRecord to IntelTag--><path d="M443.26,268 C469.849,268 502.135,268 527.848,268 " fill="none" id="IntelRecord-IntelTag" style="stroke: #A80036; stroke-width: 1.0; stroke-dasharray: 7.0,7.0;"/><polygon fill="#A80036" points="532.899,268,523.899,264,527.899,268,523.899,272,532.899,268" style="stroke: #A80036; stroke-width: 1.0;"/><!--link TektronixRecord to TektronixTag--><path d="M458.175,134 C475.897,134 494.987,134 512.417,134 " fill="none" id="TektronixRecord-TektronixTag" style="stroke: #A80036; stroke-width: 1.0; stroke-dasharray: 7.0,7.0;"/><polygon fill="#A80036" points="517.769,134,508.769,130,512.769,134,508.769,138,517.769,134" style="stroke: #A80036; stroke-width: 1.0;"/><!--link records to blocks--><path d="M277.0487,332.0421 C277.285,332.1289 277.5212,332.2162 277.7573,332.3039 C278.2297,332.4793 278.7019,332.6563 279.174,332.8349 C280.1182,333.1922 281.0618,333.5559 282.0046,333.9258 C283.8902,334.6655 285.7727,335.4299 287.65,336.2163 C295.1591,339.3621 302.5859,342.8611 309.8055,346.5523 C324.2448,353.9348 337.8557,362.0861 349.6404,369.7176 C350.3769,370.1946 351.1063,370.6695 351.8284,371.1421 C352.1894,371.3784 352.5485,371.6141 352.9058,371.8492 " fill="none" id="records-blocks" style="stroke: #A80036; stroke-width: 1.0; stroke-dasharray: 7.0,7.0;"/><polygon fill="#A80036" points="352.9058,371.8492,347.5859,363.5608,348.7289,369.101,343.1887,370.2439,352.9058,371.8492" style="stroke: #A80036; stroke-width: 1.0;"/><!--link cli to SparseItems--><path d="M83.4064,468.637 C91.6877,466.019 101.725,463.299 111,462 C186.454,451.432 274.491,454.58 331.293,458.594 " fill="none" id="cli-SparseItems" style="stroke: #A80036; stroke-width: 1.0; stroke-dasharray: 7.0,7.0;"/><polygon fill="#A80036" points="336.35,458.959,327.6627,454.3189,331.3631,458.5976,327.0844,462.298,336.35,458.959" style="stroke: #A80036; stroke-width: 1.0;"/><!--link cli to records--><path d="M65.167,448.437 C66.3398,414.409 74.0616,356.44 111,328 C115.1635,324.7944 119.7559,322.3171 124.6085,320.4374 C125.2151,320.2024 125.8258,319.9768 126.4402,319.7603 C126.5938,319.7062 126.7476,319.6526 126.9017,319.5996 " fill="none" id="cli-records" style="stroke: #A80036; stroke-width: 1.0; stroke-dasharray: 7.0,7.0;"/><polygon fill="#A80036" points="126.9017,319.5996,117.0899,318.7451,122.1737,321.2262,119.6926,326.3099,126.9017,319.5996" style="stroke: #A80036; stroke-width: 1.0;"/><!--link cli to click--><path d="M76.204,501.509 C83.8534,517.6297 95.5301,537.6204 111,551 C127.103,564.927 148.739,574.5106 167.394,580.7972 " fill="none" id="cli-click" style="stroke: #A80036; stroke-width: 1.0; stroke-dasharray: 7.0,7.0;"/><polygon fill="#A80036" points="172.569,582.4838,165.2522,575.891,167.8153,580.9339,162.7724,583.4969,172.569,582.4838" style="stroke: #A80036; stroke-width: 1.0;"/><!--link cli to xxd--><path d="M83.135,478.863 C107.127,484.12 150.323,493.583 178.831,499.829 " fill="none" id="cli-xxd" style="stroke: #A80036; stroke-width: 1.0; stroke-dasharray: 7.0,7.0;"/><polygon fill="#A80036" points="183.975,500.956,176.0395,495.1227,179.0908,499.886,174.3275,502.9374,183.975,500.956" style="stroke: #A80036; stroke-width: 1.0;"/><!--
@startuml
left to right direction
skinparam shadowing false
hide methods
hide fields

package "click" <<Frame>> {
}

package hexrec 
{
    package utils {
    }

    package xxd {
    }

    package blocks 
    {
        class block <<tuple>> {
            + address: int
            + data: bytes
        }
        show block fields
        
        class SparseItems <<bytearray>> {
            + blocks: block
        }
        show SparseItems fields
        
        SparseItems o- - "*" block
    }

    package records
    {
        abstract class Record
        {
            + address: int
            + tag: enum
            + data: bytes
            + count: int
            + checksum: int
        }
        show Record fields
        
        class BinaryRecord
        class IntelRecord
        class MotorolaRecord
        class TektronixRecord
    
        Record <|-left- BinaryRecord
        Record <|-down- IntelRecord
        Record <|-down- MotorolaRecord
        Record <|-down- TektronixRecord
        
        enum MotorolaTag
        enum IntelTag
        enum TektronixTag
        
        MotorolaRecord  .down.> MotorolaTag
        IntelRecord     .down.> IntelTag
        TektronixRecord .down.> TektronixTag
    }

    package cli {
    }

    records ..> blocks
    cli ..> SparseItems
    cli ..> records
    cli ..> click
    cli ..> xxd
}
@enduml

PlantUML version 1.2018.14beta12(Unknown compile time)
(GPL source distribution)
Java Runtime: Java(TM) SE Runtime Environment
JVM: Java HotSpot(TM) 64-Bit Server VM
Java Version: 1.7.0_25-b15
Operating System: Linux
Default Encoding: UTF-8
Language: en
Country: US
--></g></svg>